<svg width="80" height="80" viewBox="0 0 80 80" fill="none" xmlns="http://www.w3.org/2000/svg">
<path d="M73.3333 76V67.6732C75.0911 66.6374 76.1211 64.7038 76 62.6667C76 59.7214 74.2096 57.3334 72 57.3334C69.7904 57.3334 68 59.7214 68 62.6667C67.8789 64.7038 68.9089 66.6374 70.6667 67.6732V76H61.3333V35.4909L53.3333 31.4909V38.6667H57.3333V41.3334H53.3333V46.6667H57.3333V49.3334H53.3333V54.6667H57.3333V57.3334H53.3333V62.6667H57.3333V65.3334H53.3333V70.6667H57.3333V73.3334H53.3333V76H50.6667V22.3386L34.6667 17.7683V22.6667H44V25.3334H34.6667V30.6667H44V33.3334H34.6667V38.6667H44V41.3334H34.6667V46.6667H44V49.3334H34.6667V54.6667H44V57.3334H34.6667V62.6667H44V65.3334H34.6667V70.6667H44V73.3334H34.6667V76H32V1.33337H8V6.66671H20V9.33337H8V14.6667H20V17.3334H8V22.6667H20V25.3334H8V30.6667H20V33.3334H8V38.6667H20V41.3334H8V46.6667H20V49.3334H8V54.6667H20V57.3334H8V62.6667H20V65.3334H8V70.6667H20V73.3334H8V76H0V78.6667H80V76H73.3333Z" fill="white"/>
</svg>
