<svg width="80" height="80" viewBox="0 0 80 80" fill="none" xmlns="http://www.w3.org/2000/svg">
<g clip-path="url(#clip0)">
<path d="M32.7051 44.3895H38.4603V45.8283H32.7051V44.3895Z" fill="white"/>
<path d="M41.3379 48.7059H47.0931V50.1447H41.3379V48.7059Z" fill="white"/>
<path d="M32.7051 48.7059H38.4603V50.1447H32.7051V48.7059Z" fill="white"/>
<path d="M41.3379 44.3895H47.0931V45.8283H41.3379V44.3895Z" fill="white"/>
<path d="M52.8486 2.66431H67.238V5.5419H52.8486V2.66431Z" fill="white"/>
<path d="M64.3584 23.6513V8.41956H55.7256V15.0185L64.3584 23.6513Z" fill="white"/>
<path d="M19.7559 60.2162H25.511V65.9714H19.7559V60.2162Z" fill="white"/>
<path d="M5.66591 39.7759C6.29679 40.4046 7.31688 40.4046 7.94776 39.7759L36.8473 10.8756C38.5334 9.19087 41.2656 9.19087 42.951 10.8756L71.8506 39.7759C72.4808 40.4053 73.5023 40.4053 74.1324 39.7759C74.7626 39.1457 74.7626 38.1235 74.1324 37.4933L40.9164 4.27732C40.3544 3.71599 39.4439 3.71599 38.8819 4.27732L5.66591 37.4933C5.03714 38.1242 5.03714 39.145 5.66591 39.7759Z" fill="white"/>
<path d="M12.5621 73.1654C12.4974 73.183 12.4307 73.1914 12.3633 73.19C11.7303 73.216 11.1549 72.8247 10.9462 72.2261C10.4924 70.8976 9.14283 70.0932 7.75812 70.3265C6.37342 70.5597 5.36177 71.7617 5.36809 73.1654C5.37231 73.6038 5.47769 74.0345 5.6758 74.4244C5.94839 74.9773 5.83879 75.6426 5.40251 76.0781C4.96694 76.5137 4.30234 76.6233 3.74944 76.3514C2.39706 75.6833 0.758038 76.1772 0 77.4818H18.129C17.4693 74.9456 15.1825 73.1731 12.5621 73.1654Z" fill="white"/>
<path d="M38.8823 12.9101L17.4746 34.3179H62.3246L40.9169 12.9101C40.3549 12.3488 39.4444 12.3488 38.8823 12.9101Z" fill="white"/>
<path d="M74.4305 73.1653C73.6359 73.1653 72.9917 72.5218 72.9917 71.7265C72.9917 69.3428 71.059 67.4102 68.6753 67.4102C66.2916 67.4102 64.3589 69.3428 64.3589 71.7265C64.3652 72.0961 64.42 72.4635 64.5219 72.819C64.6385 73.2609 64.5388 73.7316 64.2528 74.0878C63.9634 74.4397 63.5278 74.6379 63.0726 74.6245C63.0241 74.6245 62.8801 74.6077 62.8309 74.6013C61.031 74.6287 59.4397 75.7788 58.8496 77.4789H80.0002C79.3391 74.9428 77.0517 73.171 74.4305 73.1653Z" fill="white"/>
<path d="M47.0931 77.4818V57.3386H32.7051V77.4818H47.0931ZM34.1439 67.4102H35.5827V64.5326H34.1439V61.655H37.0215C37.816 61.655 38.4603 62.2992 38.4603 63.0938V68.849C38.4603 69.6443 37.816 70.2878 37.0215 70.2878H34.1439V67.4102Z" fill="white"/>
<path d="M62.9085 67.4693C63.3188 66.9157 63.8071 66.4232 64.3586 66.0094V37.1956H15.4395V70.7888C18.388 71.8384 20.5392 74.3977 21.0668 77.4819H29.8274V55.8999C29.8274 55.1054 30.4717 54.4611 31.2662 54.4611H48.5318C49.3264 54.4611 49.9706 55.1054 49.9706 55.8999V77.4819H55.8838C56.4606 74.6612 58.6617 72.4545 61.481 71.8707C61.481 71.8237 61.481 71.7745 61.481 71.7267C61.4873 70.6483 61.7388 69.5854 62.2165 68.618C61.998 68.7627 61.743 68.8428 61.481 68.8491H52.8482C52.0536 68.8491 51.4094 68.2056 51.4094 67.4103V58.7775C51.4094 57.983 52.0536 57.3387 52.8482 57.3387H61.481C62.2755 57.3387 62.9198 57.983 62.9198 58.7775V67.4103C62.9198 67.4321 62.9085 67.4496 62.9085 67.4693ZM28.3886 67.4103C28.3886 68.2056 27.7444 68.8491 26.9498 68.8491H18.317C17.5225 68.8491 16.8783 68.2056 16.8783 67.4103V58.7775C16.8783 57.983 17.5225 57.3387 18.317 57.3387H26.9498C27.7444 57.3387 28.3886 57.983 28.3886 58.7775V67.4103ZM49.9706 50.1447C49.9706 51.7346 48.6821 53.0223 47.093 53.0223H32.705C31.1159 53.0223 29.8274 51.7346 29.8274 50.1447V44.3895C29.8274 42.8004 31.1159 41.5119 32.705 41.5119H47.093C48.6821 41.5119 49.9706 42.8004 49.9706 44.3895V50.1447Z" fill="white"/>
<path d="M54.2871 60.2162H60.0423V65.9714H54.2871V60.2162Z" fill="white"/>
</g>
<defs>
<clipPath id="clip0">
<rect width="80" height="80" fill="white"/>
</clipPath>
</defs>
</svg>
