<svg width="120" height="120" viewBox="0 0 120 120" fill="none" xmlns="http://www.w3.org/2000/svg">
<g clip-path="url(#clip0)">
<path d="M120 78.4333V92.0961C120 96.7362 107.626 100.603 92.417 100.603C77.2077 100.603 65.0918 96.8652 65.0918 92.2251V90.6785L64.834 79.8514H64.9628C67.025 83.8471 78.3677 86.9406 92.0301 86.9406C105.693 86.9406 119.742 83.0739 119.742 78.4336H120V78.4333Z" fill="#E2A63B"/>
<path d="M91.6435 27.6497V41.1834H91.3857C91.3857 45.9525 78.6255 49.6904 63.5449 49.6904C57.7448 49.8192 51.8156 49.1748 46.1443 47.757L45.8865 48.0148C43.0508 45.6947 39.8286 43.8903 36.3485 42.7303V42.4725L35.9619 28.1653C36.8641 32.5476 48.8512 36.0277 63.4161 36.0277C77.9811 36.0277 91.3857 32.2898 91.3857 27.6497H91.6435Z" fill="#EFC025"/>
<path d="M91.6443 27.9075C91.6443 32.5476 78.884 36.2854 63.6747 36.2854C48.4653 36.2854 36.9939 32.8054 36.0917 28.4231C36.0917 28.2943 35.9629 28.0365 35.9629 27.9075C35.9629 23.2674 48.3366 19.4005 63.6749 19.4005C79.0128 19.2717 91.6443 23.1383 91.6443 27.9075Z" fill="#FFCD29"/>
<path d="M64.9628 79.8512L64.834 77.0155L64.5762 65.4153C65.4784 69.7976 77.4655 73.2776 92.0304 73.2776C106.595 73.2776 119.485 69.5398 119.871 65.0284H120V78.4334H119.742C119.742 83.0735 107.239 86.9404 92.0302 86.9404C76.8211 86.9401 67.0252 83.8469 64.9628 79.8512Z" fill="#EFC025"/>
<path d="M46.5312 88.4869C50.0113 85.2647 52.7182 81.14 54.1358 76.6289H54.7802C57.6159 76.8867 60.4515 77.0155 63.545 77.0155H64.8338V79.8512L65.0916 90.6782H63.6738C58.0024 90.807 52.4601 90.1626 46.9178 88.8738L46.5312 88.4869Z" fill="#E2A63B"/>
<path d="M64.9637 64.3841V65.0285L65.2215 77.0156H63.9324C60.7102 77.0156 57.7455 76.8868 54.91 76.629H54.2656C55.1678 73.9224 55.5544 71.0867 55.5544 68.251C55.5544 66.3176 55.2966 64.5132 54.91 62.7087H55.5544C58.2611 62.9666 60.968 63.0953 63.9324 63.0953L65.0924 63.7397C64.9637 63.9973 64.9637 64.2551 64.9637 64.3841Z" fill="#EFC025"/>
<path d="M46.1443 47.7569C51.8156 49.1747 57.7445 49.8191 63.5449 49.6904C78.6252 49.6904 91.3857 45.9525 91.3857 41.1833H91.6435V56.3927C77.5942 56.3927 66.1227 59.744 64.7049 63.9972L63.5449 63.3528C60.7092 63.3528 58.0026 63.2241 55.4247 62.9662H54.7803C53.6203 57.0371 50.5268 51.7526 45.8867 47.8857L46.1443 47.7569Z" fill="#E2A63B"/>
<path d="M55.0382 62.9663C53.7494 57.0371 50.5269 51.6238 45.8868 47.6281C43.0511 45.0503 39.6999 43.2459 36.091 42.2146C33.5131 41.3124 30.6775 40.9258 27.9708 40.9258C12.6325 40.7965 0.129788 53.0414 0.00100658 68.3795C-0.127775 83.7177 12.1169 96.2203 27.4552 96.3491C34.5444 96.3491 41.2467 93.7713 46.5312 89.0021C50.1403 85.6509 52.847 81.3976 54.2648 76.7573C55.167 74.0506 55.5536 71.3437 55.5536 68.5081C55.5538 66.7041 55.0382 64.7707 55.0382 62.9663Z" fill="#FFCD29"/>
<path d="M119.871 64.7707V65.0285C119.485 69.5398 106.982 73.2777 92.0304 73.2777C77.0789 73.2777 65.4784 69.7976 64.5762 65.4153V64.7709C64.5762 64.5131 64.5762 64.2553 64.705 63.9975C66.1228 59.744 77.5942 56.3929 91.6435 56.3929H92.0301C107.24 56.3927 119.871 60.1306 119.871 64.7707Z" fill="#FFCD29"/>
<path d="M27.9701 65.1572C25.65 65.1572 23.7166 63.2237 23.7166 60.9037C23.7166 58.5836 25.65 56.6502 27.9701 56.6502C30.2901 56.6502 32.2236 58.5836 32.2236 60.9037C32.2236 62.3215 33.3836 63.4815 34.8014 63.4815C36.2193 63.4815 37.3793 62.3215 37.3793 60.9037C37.3793 56.7792 34.5436 53.0413 30.5479 51.8813V50.8501C30.5479 49.4322 29.3879 48.2722 27.9701 48.2722C26.5522 48.2722 25.3922 49.4322 25.3922 50.8501V51.8813C21.2677 52.9126 18.4321 56.6504 18.5609 60.9037C18.5609 66.0594 22.8144 70.3129 27.9701 70.3129C30.2901 70.3129 32.2236 72.2464 32.2236 74.5664C32.2236 76.8865 30.2901 78.8199 27.9701 78.8199C25.65 78.8199 23.7166 76.8865 23.7166 74.5664C23.7166 73.1486 22.5565 71.9885 21.1387 71.9885C19.7209 71.9885 18.5609 73.1486 18.5609 74.5664C18.5609 78.8199 21.3965 82.4288 25.3922 83.5888V85.651C25.3922 87.0688 26.5522 88.2289 27.9701 88.2289C29.3879 88.2289 30.5479 87.0688 30.5479 85.651V83.5888C35.5746 82.171 38.4103 76.8865 36.8637 71.8595C35.7037 67.9929 32.0946 65.1572 27.9701 65.1572Z" fill="#E2A63B"/>
</g>
<defs>
<clipPath id="clip0">
<rect width="120" height="120" fill="white"/>
</clipPath>
</defs>
</svg>
