<svg width="90" height="90" viewBox="0 0 90 90" fill="none" xmlns="http://www.w3.org/2000/svg">
<g clip-path="url(#clip0)">
<path d="M60.5156 44.8486H37.6672C36.4765 44.8486 35.433 44.0522 35.1191 42.9036C34.8052 41.7551 35.2984 40.5385 36.3234 39.9326C46.2784 34.0502 51.4494 27.1884 52.1314 18.9552C52.3692 16.0979 54.9142 13.8155 57.8031 13.8533C60.751 13.9004 63.5127 15.082 65.5811 17.1808C67.6511 19.2816 68.7919 22.0635 68.793 25.0138C68.793 25.0142 68.793 25.0145 68.793 25.0149V25.9024C68.793 33.1094 66.6583 37.7047 62.7196 43.6633C62.23 44.4036 61.4026 44.8486 60.5156 44.8486Z" fill="#FFC380"/>
<path d="M88.5164 47.8426C88.5164 43.2786 84.8033 39.5654 80.2392 39.5654H37.6665C37.1935 39.5654 36.7291 39.6923 36.3222 39.9332C33.3337 41.7001 30.3162 43.1547 27.8917 44.3238C27.046 44.7315 26.2473 45.1166 25.5208 45.4798C24.6259 45.9273 24.0605 46.8419 24.0605 47.8426V81.6557C24.0605 82.6564 24.6259 83.571 25.5208 84.0186C36.1947 89.3548 45.0675 90.0001 55.4141 90.0001C57.0164 90.0001 58.655 89.9846 60.34 89.9688C62.2037 89.9512 64.1304 89.9329 66.1505 89.9329H74.5017C79.0657 89.9329 82.7789 86.2199 82.7789 81.6557C82.7789 80.1212 82.3593 78.6829 81.6284 77.4495C84.0065 75.9936 85.5966 73.3715 85.5966 70.3846C85.5966 68.8501 85.177 67.4118 84.4461 66.1784C86.8243 64.7225 88.4144 62.1004 88.4144 59.1135C88.4144 56.9669 87.593 55.0085 86.2481 53.5364C87.7127 51.9928 88.5164 49.9796 88.5164 47.8426Z" fill="#FFCF99"/>
<path d="M83.0213 24.8057H77.3858C75.927 24.8057 74.7441 23.6229 74.7441 22.1641C74.7441 20.7053 75.927 19.5225 77.3858 19.5225H83.0213C84.4801 19.5225 85.663 20.7053 85.663 22.1641C85.663 23.6229 84.4803 24.8057 83.0213 24.8057Z" fill="#3162A6"/>
<path d="M43.5731 24.8057H37.9375C36.4787 24.8057 35.2959 23.6229 35.2959 22.1641C35.2959 20.7053 36.4787 19.5225 37.9375 19.5225H43.5731C45.0319 19.5225 46.2147 20.7053 46.2147 22.1641C46.2147 23.6229 45.0323 24.8057 43.5731 24.8057Z" fill="#3162A6"/>
<path d="M52.0286 10.1647C51.1154 10.1647 50.2277 9.69099 49.7385 8.84355L46.9208 3.96298C46.1913 2.69964 46.6242 1.08386 47.8876 0.354545C49.1509 -0.374947 50.7667 0.0580025 51.496 1.32134L54.3138 6.20191C55.0433 7.46525 54.6103 9.08103 53.347 9.81035C52.9311 10.0506 52.4767 10.1647 52.0286 10.1647Z" fill="#3162A6"/>
<path d="M68.9305 10.1647C68.4823 10.1647 68.0281 10.0506 67.6122 9.81032C66.3488 9.08083 65.9159 7.46522 66.6454 6.20188L69.4632 1.32132C70.1925 0.0579756 71.8082 -0.375325 73.0716 0.354519C74.3349 1.08401 74.7679 2.69962 74.0384 3.96296L71.2206 8.84352C70.7318 9.69096 69.8435 10.1647 68.9305 10.1647Z" fill="#3162A6"/>
<path d="M18.0372 76.0535V89.9663H12.7539V76.0535C12.7539 74.5954 13.9374 73.4119 15.3955 73.4119C16.8537 73.4119 18.0372 74.5954 18.0372 76.0535Z" fill="#3A7EDD"/>
<path d="M83.0213 24.8057H77.3858C75.927 24.8057 74.7441 23.6229 74.7441 22.1641C74.7441 20.7053 75.927 19.5225 77.3858 19.5225H83.0213C84.4801 19.5225 85.663 20.7053 85.663 22.1641C85.663 23.6229 84.4803 24.8057 83.0213 24.8057Z" fill="#3162A6"/>
<path d="M43.5731 24.8057H37.9375C36.4787 24.8057 35.2959 23.6229 35.2959 22.1641C35.2959 20.7053 36.4787 19.5225 37.9375 19.5225H43.5731C45.0319 19.5225 46.2147 20.7053 46.2147 22.1641C46.2147 23.6229 45.0323 24.8057 43.5731 24.8057Z" fill="#3162A6"/>
<path d="M52.0286 10.1647C51.1154 10.1647 50.2277 9.69099 49.7385 8.84355L46.9208 3.96298C46.1913 2.69964 46.6242 1.08386 47.8876 0.354545C49.1509 -0.374947 50.7667 0.0580025 51.496 1.32134L54.3138 6.20191C55.0433 7.46525 54.6103 9.08103 53.347 9.81035C52.9311 10.0506 52.4767 10.1647 52.0286 10.1647Z" fill="#3162A6"/>
<path d="M68.9305 10.1647C68.4823 10.1647 68.0281 10.0506 67.6122 9.81032C66.3488 9.08083 65.9159 7.46522 66.6454 6.20188L69.4632 1.32132C70.1925 0.0579756 71.8082 -0.375325 73.0716 0.354519C74.3349 1.08401 74.7679 2.69962 74.0384 3.96296L71.2206 8.84352C70.7318 9.69096 69.8435 10.1647 68.9305 10.1647Z" fill="#3162A6"/>
<path d="M18.0372 76.0535V89.9663H12.7539V76.0535C12.7539 74.5954 13.9374 73.4119 15.3955 73.4119C16.8537 73.4119 18.0372 74.5954 18.0372 76.0535Z" fill="#3A7EDD"/>
<path d="M26.667 39.5654H4.12504C2.66693 39.5654 1.4834 40.749 1.4834 42.2071V87.2911C1.4834 88.7509 2.66693 89.9327 4.12504 89.9661H21.0315C24.2701 89.9327 27.0791 88.0642 28.437 85.3485C28.9953 84.2372 29.3087 82.9816 29.3087 81.6555V42.2071C29.3087 40.7488 28.1252 39.5654 26.667 39.5654Z" fill="#3162A6"/>
<path d="M18.0372 75.8774V89.9662H12.7539V75.8774C12.7539 74.4193 13.9374 73.2357 15.3955 73.2357C16.8537 73.2357 18.0372 74.4193 18.0372 75.8774Z" fill="#3A7EDD"/>
</g>
<defs>
<clipPath id="clip0">
<rect width="90" height="90" fill="white"/>
</clipPath>
</defs>
</svg>
