<svg width="100" height="100" viewBox="0 0 100 100" fill="none" xmlns="http://www.w3.org/2000/svg">
<g clip-path="url(#clip0)">
<path d="M92.9715 58.7413C92.9715 54.981 89.9231 51.9324 86.1626 51.9324H72.1209C71.127 51.9324 70.4662 50.9042 70.8792 50.0001L72.5458 46.3513C73.5127 44.2344 74.0132 41.9344 74.0132 39.6072V32.0195C74.0132 30.9256 73.7993 29.8426 73.3832 28.8309C72.3063 26.2116 69.7546 24.5017 66.9226 24.5017H66.9082C64.9813 24.5017 63.2403 25.652 62.4846 27.4247L59.5534 34.302L48.5156 40.7286L46.7059 41.4976C44.2181 42.5547 42.204 44.4869 41.044 46.9284L38.6671 51.9322L32.5176 55.4579V91.798L38.6671 94.3463L42.3015 96.4915C43.6995 97.3168 45.2934 97.752 46.9169 97.752H73.3014H82.05C85.3583 97.752 88.1121 95.075 88.0535 91.7673C88.015 89.5935 86.7956 87.7092 85.0101 86.7249C84.8784 86.6523 84.7934 86.517 84.7934 86.3665V86.3552C84.7934 86.1672 84.9227 86.0024 85.1065 85.9621C87.744 85.3826 89.718 83.0333 89.718 80.2218C89.718 78.5009 88.9785 76.9529 87.8001 75.8778C90.1686 74.9641 91.8495 72.6674 91.8495 69.9769C91.8495 67.8562 90.8045 65.9807 89.2026 64.8334C91.4366 63.7164 92.9715 61.4087 92.9715 58.7413Z" fill="#FFCF99"/>
<path d="M36.8597 59.7992L41.8204 56.9552C42.5944 56.5114 43.2142 55.8417 43.5971 55.036L45.3862 51.2699C46.5461 48.8284 48.5602 46.8963 51.0481 45.8391L52.8577 45.0701L62.6406 39.3743C63.4554 38.9 64.0953 38.175 64.4648 37.3078L66.8268 31.7663C67.5824 29.9936 69.3232 28.8432 71.2503 28.8432H71.2647C72.0523 28.8432 72.8165 28.9797 73.535 29.2271C73.4879 29.094 73.4379 28.962 73.3842 28.8313C72.3073 26.2119 69.7556 24.5021 66.9235 24.5021H66.9092C64.9822 24.5021 63.2413 25.6524 62.4856 27.4251L59.5544 34.3024L48.5165 40.7289L46.7069 41.4979C44.2191 42.5551 42.2049 44.4872 41.045 46.9288L38.6681 51.9326L32.5186 55.4582V91.7983L36.8597 93.5974V59.7992Z" fill="#FFC380"/>
<path d="M71.0624 14.6626L70.4514 12.2191C70.334 11.75 70.4133 11.2535 70.6705 10.8441L72.5 7.93182C73.2427 6.74956 72.3929 5.21211 70.9967 5.21211H69.1506C68.5009 5.21211 67.9031 4.85733 67.592 4.28685L66.2776 1.87703C65.6048 0.643285 63.8333 0.643285 63.1604 1.87703L61.8461 4.28685C61.535 4.85713 60.9372 5.21211 60.2875 5.21211H58.4414C57.045 5.21211 56.1952 6.74956 56.938 7.93182L58.7676 10.8441C59.0248 11.2535 59.1038 11.75 58.9867 12.2191L58.3757 14.6626C58.0016 16.1588 59.5819 17.3875 60.9398 16.6564L63.8776 15.0745C64.403 14.7915 65.0355 14.7915 65.5611 15.0745L68.4989 16.6564C69.8561 17.3875 71.4365 16.1588 71.0624 14.6626Z" fill="#FFCD29"/>
<path d="M10.007 100H33.7108C36.4014 100 38.5823 97.8189 38.5823 95.1285V50.398C38.5823 47.7074 36.4012 45.5265 33.7108 45.5265H10.007C8.36146 45.5265 7.02734 46.8606 7.02734 48.5062V97.0205C7.02754 98.6659 8.36146 100 10.007 100Z" fill="#56B50D"/>
<path d="M83.4935 11.2646H81.2368C80.4101 11.2646 79.7402 10.5945 79.7402 9.76802C79.7402 8.94153 80.4101 8.27148 81.2368 8.27148H83.4935C84.3202 8.27148 84.9901 8.94153 84.9901 9.76802C84.9901 10.5945 84.32 11.2646 83.4935 11.2646Z" fill="#FFCD29"/>
<path d="M78.9454 4.48123C78.5295 4.48123 78.1157 4.30883 77.8198 3.97161C77.2748 3.35025 77.3365 2.40484 77.9577 1.8597L79.6539 0.371545C80.2751 -0.173394 81.2207 -0.111737 81.7659 0.509426C82.3108 1.13079 82.2491 2.0762 81.628 2.62134L79.9317 4.10949C79.6476 4.35892 79.2958 4.48123 78.9454 4.48123Z" fill="#FFCD29"/>
<path d="M80.6403 19.5359C80.2899 19.5359 79.938 19.4136 79.654 19.1644L77.9577 17.6762C77.3366 17.1311 77.2747 16.1857 77.8199 15.5643C78.365 14.943 79.3106 14.8813 79.9318 15.4264L81.6281 16.9146C82.2492 17.4597 82.3111 18.4051 81.7659 19.0265C81.47 19.3635 81.0562 19.5359 80.6403 19.5359Z" fill="#FFCD29"/>
<path d="M47.5773 11.2646H45.3208C44.4943 11.2646 43.8242 10.5945 43.8242 9.76802C43.8242 8.94153 44.4943 8.27148 45.3208 8.27148H47.5773C48.4038 8.27148 49.0739 8.94153 49.0739 9.76802C49.0739 10.5945 48.4038 11.2646 47.5773 11.2646Z" fill="#FFCD29"/>
<path d="M49.8689 4.48123C49.5185 4.48123 49.1666 4.35891 48.8826 4.10969L47.1863 2.62153C46.565 2.07639 46.5033 1.13098 47.0485 0.509616C47.5936 -0.111746 48.5392 -0.173204 49.1604 0.371735L50.8567 1.85989C51.4778 2.40503 51.5397 3.35044 50.9943 3.9718C50.6986 4.30902 50.285 4.48123 49.8689 4.48123Z" fill="#FFCD29"/>
<path d="M48.174 19.536C47.7581 19.536 47.3443 19.3636 47.0484 19.0264C46.5032 18.405 46.5651 17.4596 47.1863 16.9145L48.8825 15.4263C49.5037 14.8812 50.4493 14.943 50.9943 15.5642C51.5394 16.1856 51.4777 17.131 50.8566 17.6761L49.1603 19.1643C48.8764 19.4137 48.5244 19.536 48.174 19.536Z" fill="#FFCD29"/>
</g>
<defs>
<clipPath id="clip0">
<rect width="100" height="100" fill="white"/>
</clipPath>
</defs>
</svg>
