<svg width="110" height="110" viewBox="0 0 110 110" fill="none" xmlns="http://www.w3.org/2000/svg">
<g clip-path="url(#clip0)">
<path d="M104.258 51.6768C104.258 43.9858 99.5809 37.3873 92.916 34.5703C94.0929 32.2951 94.7619 29.7144 94.7619 26.976C94.7619 17.832 87.3494 10.4195 78.2054 10.4195C75.6003 10.4195 73.1366 11.023 70.9439 12.0948C68.9957 5.11908 62.5979 0 55.0006 0C47.4033 0 41.0057 5.11908 39.0573 12.0948C36.8646 11.0228 34.401 10.4195 31.7958 10.4195C22.6518 10.4195 15.2393 17.832 15.2393 26.976C15.2393 29.7144 15.9081 32.2951 17.0852 34.5703C10.4203 37.3875 5.74316 43.9858 5.74316 51.6768C5.74316 61.644 13.6013 69.7658 23.459 70.2103C24.8333 75.1882 30.1406 78.8992 36.4832 78.8992C40.078 78.8992 43.3389 77.7053 45.7419 75.7666C48.1452 77.7053 51.4061 78.8992 55.0006 78.8992C58.5952 78.8992 61.8563 77.7053 64.2593 75.7666C66.6625 77.7053 69.9234 78.8992 73.518 78.8992C79.8606 78.8992 85.1679 75.1882 86.5422 70.2101C96.3999 69.7656 104.258 61.644 104.258 51.6768Z" fill="#FE8502"/>
<path d="M54.0075 0.0328711C53.8036 0.0451172 53.6006 0.0597266 53.3988 0.0794922C53.337 0.0855078 53.2755 0.0923828 53.2141 0.099043C52.9973 0.122461 52.7816 0.149531 52.5674 0.181328C52.5272 0.187129 52.487 0.19293 52.4471 0.19916C52.1923 0.238906 51.9387 0.283164 51.6878 0.334297C51.6874 0.334297 51.687 0.334512 51.6865 0.334512C56.0328 1.21838 60.1022 4.24553 62.6803 8.06115C64.506 10.7632 67.6253 12.3209 70.8789 12.0996C70.9006 12.0981 70.9221 12.0966 70.9438 12.0951C68.9958 5.11908 62.598 0 55.0007 0C54.7343 0 54.4698 0.00773437 54.2066 0.0201953C54.14 0.023418 54.0741 0.0290039 54.0075 0.0328711Z" fill="#D16E03"/>
<path d="M92.9153 34.5702C94.0925 32.295 94.7613 29.7143 94.7613 26.9759C94.7613 17.832 87.3487 10.4194 78.2048 10.4194C77.07 10.4194 75.9622 10.5342 74.8919 10.752C82.4471 12.2875 88.1333 18.9674 88.1333 26.9759C88.1333 29.7143 87.4645 32.295 86.2874 34.5702C92.9523 37.3875 97.6294 43.9858 97.6294 51.6767C97.6294 61.644 89.7713 69.7655 79.9138 70.21C78.7874 74.2901 75.0182 77.5173 70.2031 78.5494C71.2629 78.7769 72.373 78.899 73.5175 78.899C79.8601 78.899 85.1674 75.188 86.5418 70.2098C96.3995 69.7653 104.257 61.6438 104.257 51.6765C104.257 43.9858 99.5806 37.3873 92.9153 34.5702Z" fill="#D16E03"/>
<path d="M43.1448 73.0244C41.6516 75.5569 35.4637 78.3888 33.1689 78.5497C33.4214 78.6039 33.6773 78.6511 33.9353 78.6932C33.9559 78.6967 33.9765 78.7003 33.9974 78.7035C34.2588 78.745 34.5229 78.7807 34.7897 78.8093C34.7966 78.8099 34.8035 78.8103 34.8104 78.8112C35.0503 78.8365 35.2929 78.8548 35.5367 78.8692C35.596 78.8726 35.6555 78.8761 35.7153 78.8791C35.9694 78.8913 36.2249 78.8995 36.4827 78.8995C39.7612 78.8995 42.7596 77.9041 45.0855 76.2586L45.4932 75.9621L43.4166 72.5549L43.1448 73.0244Z" fill="#BD6404"/>
<path d="M63.2791 77.252L70.3723 66.0589C70.9335 65.1735 70.7636 64.011 69.9727 63.3231C69.1282 62.5885 67.8582 62.6364 67.0715 63.4328L61.8476 68.7217C61.1547 69.4231 59.9677 68.8398 60.0996 67.8629L61.6357 56.4814C61.7999 55.2653 60.901 54.164 59.6766 54.0813L58.2373 53.984C57.1558 53.911 56.1933 54.6651 56.0053 55.7326L53.2633 71.3116C53.1107 72.1781 52.0105 72.4638 51.4556 71.7815L42.8678 61.2199C42.2736 60.489 41.2685 60.2377 40.4004 60.6027L38.8967 61.2346C37.7062 61.7349 37.2353 63.174 37.8996 64.2813L46.7245 78.991C48.0024 81.1212 48.5294 83.6202 48.2099 86.0838C47.0663 94.9047 45.6455 103.224 39.8317 110H70.1685C63.9449 102.746 62.4096 93.7243 61.5859 84.2115C61.3751 81.7685 61.9666 79.3229 63.2791 77.252Z" fill="#BF6101"/>
<path d="M70.3722 66.0588C70.9334 65.1735 70.7637 64.0109 69.9726 63.323C69.128 62.5885 67.8581 62.6364 67.0714 63.4328L64.7384 65.7946L61.8474 68.7214C61.1546 69.4229 59.9676 68.8396 60.0995 67.8627L61.6356 56.4811C61.7957 55.2958 60.9447 54.2222 59.7677 54.092L55.4483 80.94C55.3757 81.2868 55.319 81.6367 55.2795 81.9893C55.1972 82.723 55.1862 83.467 55.2504 84.211C56.0746 93.724 57.6099 102.746 63.8335 110H70.1688C63.9452 102.746 62.4099 93.7241 61.5862 84.2112C61.3748 81.7684 61.9665 79.3231 63.2787 77.252L70.3722 66.0588Z" fill="#9A4D01"/>
<path d="M51.8495 12.998C47.2044 12.998 43.206 15.7549 41.3933 19.7205C39.5207 18.3973 37.237 17.6172 34.7695 17.6172C28.4215 17.6172 23.2753 22.7633 23.2753 29.1113C23.2753 31.2058 23.8384 33.1678 24.8173 34.8588C19.3052 35.7064 15.084 40.4695 15.084 46.2187C15.084 52.5667 20.2301 57.7128 26.5781 57.7128C32.9261 57.7128 63.3437 30.8402 63.3437 24.4922C63.3437 18.1442 58.198 12.998 51.8495 12.998Z" fill="#DF7604"/>
</g>
<defs>
<clipPath id="clip0">
<rect width="110" height="110" fill="white"/>
</clipPath>
</defs>
</svg>
